<svg width="118" height="63" viewBox="0 0 118 63" fill="none" xmlns="http://www.w3.org/2000/svg">
<path d="M22.1966 48.0954C22.222 48.2222 22.146 48.3109 21.9686 48.3615C21.8165 48.4122 21.7278 48.3996 21.7025 48.3235L21.6264 47.2972L21.9686 47.1071C21.9686 47.0564 21.8925 47.0057 21.7405 46.955C21.6138 46.9297 21.5504 46.9804 21.5504 47.1071C21.5504 46.9297 21.4997 46.5749 21.3984 46.0427C21.3223 45.5359 21.2336 45.0037 21.1323 44.4462C21.0562 43.8886 21.0182 43.4578 21.0182 43.1537C21.0182 42.9763 21.0309 42.8749 21.0562 42.8496L20.6761 42.7356L20.7902 42.1654C20.6128 42.2667 20.4987 42.1907 20.448 41.9373C20.3973 41.6839 20.3467 41.4178 20.296 41.139C20.2453 40.8602 20.1313 40.7462 19.9539 40.7969C19.9285 40.4421 19.7891 40.138 19.5357 39.8846C19.3076 39.6058 19.1556 39.3017 19.0795 38.9722L19.1556 39.0102H19.1936C19.1429 38.9596 19.0542 38.8962 18.9275 38.8202C18.8261 38.7441 18.7881 38.6428 18.8135 38.5161L18.1672 38.364L18.2813 38.288L17.521 37.7558H17.483C17.4323 37.7558 17.3689 37.7811 17.2929 37.8318C17.2422 37.8572 17.1915 37.8698 17.1409 37.8698C17.0142 37.8698 16.9508 37.7558 16.9508 37.5277H16.1145L16.0385 37.2236C15.9371 37.249 15.8357 37.2743 15.7344 37.2996C15.6583 37.2996 15.5696 37.2996 15.4683 37.2996C15.1642 37.2996 14.8601 37.2616 14.556 37.1856C14.2518 37.0842 13.9604 36.9955 13.6816 36.9195L13.5296 37.1476L12.4272 36.9575L12.6933 36.8435L12.4272 36.7674L12.8453 35.551L13.2635 35.2469V34.8668L13.6816 34.4486L13.8717 34.5627L13.7957 34.2586H13.8717L14.4419 34.4106C14.4926 34.3599 14.4419 34.3219 14.2899 34.2966C14.1378 34.2712 14.0998 34.2332 14.1758 34.1825C14.2012 34.1825 14.2265 34.1825 14.2518 34.1825C14.2772 34.1572 14.3152 34.1445 14.3659 34.1445C14.4926 34.1445 14.6446 34.1572 14.822 34.1825C15.0248 34.2079 15.1515 34.2332 15.2022 34.2586L15.6583 33.9545C16.0131 33.9798 16.52 33.9418 17.1789 33.8404C17.8378 33.7137 18.408 33.6503 18.8895 33.6503C19.2443 33.6503 19.4724 33.701 19.5737 33.8024C19.7765 33.6757 19.9792 33.5997 20.1819 33.5743C20.3847 33.5236 20.6001 33.4983 20.8282 33.4983H21.4744C21.6264 33.4983 21.7785 33.4983 21.9306 33.4983C22.0826 33.473 22.2347 33.4223 22.3867 33.3462C22.3867 33.0168 22.3994 32.7 22.4247 32.3959C22.4501 32.0665 22.4374 31.7497 22.3867 31.4456L22.6528 31.1795V30.6853C22.5261 30.6853 22.4754 30.6473 22.5008 30.5713C22.5514 30.4699 22.6275 30.4319 22.7288 30.4572L22.5388 29.773L22.8049 29.6209C22.7288 29.2661 22.6908 28.9367 22.6908 28.6326C22.6908 28.2778 22.7162 27.9357 22.7669 27.6062C22.8429 27.2514 22.8936 26.884 22.9189 26.5038C22.8682 26.5038 22.8429 26.4785 22.8429 26.4278C22.8429 26.3771 22.8682 26.3138 22.9189 26.2377C22.9696 26.1617 23.0076 26.1237 23.0329 26.1237L22.8429 25.5155L23.109 25.3254V23.7288L23.3751 23.4628L22.9189 22.8165C22.8936 22.8165 22.7288 22.8292 22.4247 22.8545C22.146 22.8799 22.0699 22.9812 22.1966 23.1586L21.4364 23.2727L21.3223 23.0066L20.7521 23.5388C20.7015 23.4121 20.6761 23.3487 20.6761 23.3487V23.6148C20.3467 23.5895 20.0552 23.6528 19.8018 23.8049C19.5484 23.9569 19.2823 24.0583 19.0035 24.109C19.0542 24.0583 19.0035 24.0583 18.8515 24.109C18.7248 24.1343 18.7501 24.1723 18.9275 24.223C18.598 24.2484 18.2686 24.299 17.9391 24.3751C17.6097 24.4258 17.3183 24.5525 17.0648 24.7552L17.2549 24.8312H16.6847L16.4946 24.5651L16.4186 25.0593C15.8864 25.2114 15.4809 25.3761 15.2022 25.5535C14.9234 25.7055 14.7207 25.7816 14.594 25.7816C14.4926 25.7816 14.4419 25.6675 14.4419 25.4394C14.4419 25.2114 14.4799 24.7552 14.556 24.071C14.7587 23.9443 14.9234 23.7288 15.0501 23.4247C15.2022 23.1206 15.3035 22.8799 15.3542 22.7025C15.4049 22.7278 15.4556 22.7025 15.5063 22.6265C15.5823 22.5251 15.595 22.4491 15.5443 22.3984L16.1905 22.4364V22.2463C16.7734 22.1956 17.3689 22.0563 17.9772 21.8282C18.5854 21.6001 19.1809 21.4354 19.7638 21.334L20.0299 21.4861C20.2073 21.258 20.5241 21.1059 20.9802 21.0299C21.4364 20.9539 21.9179 20.8905 22.4247 20.8398C22.9316 20.7638 23.3371 20.6751 23.6412 20.5737C23.6158 20.4724 23.6031 20.3837 23.6031 20.3076C23.6031 20.2063 23.6031 20.1049 23.6031 20.0035C23.6031 19.8008 23.6031 19.5981 23.6031 19.3953C23.6285 19.1672 23.6538 18.9392 23.6792 18.7111C23.6538 18.6857 23.6285 18.6857 23.6031 18.7111C23.6031 18.7364 23.6158 18.7618 23.6412 18.7871L23.185 19.4333L23.109 19.5094C23.0836 19.5094 23.0456 19.522 22.9949 19.5474C22.9696 19.5727 22.9442 19.5727 22.9189 19.5474C22.8936 19.4207 22.9062 19.2179 22.9569 18.9392C23.0076 18.635 23.071 18.3436 23.147 18.0648C23.223 17.7607 23.2737 17.558 23.299 17.4566H23.5651L23.6792 16.1642H23.9453C23.9706 15.7587 24.1227 15.3279 24.4014 14.8717C24.6802 14.3902 24.9336 13.9847 25.1617 13.6553L25.998 13.7313C26.0994 13.7313 26.1627 13.744 26.1881 13.7693V14.1115L26.7583 14.1495L27.2904 14.9477C27.2904 15.2012 27.2524 15.4546 27.1764 15.708C27.1257 15.9614 27.0497 16.2149 26.9483 16.4683C26.8976 16.4429 26.8343 16.4303 26.7583 16.4303C26.6822 16.4303 26.6442 16.4683 26.6442 16.5443C26.6442 16.595 26.6569 16.6837 26.6822 16.8104C26.7329 16.9118 26.7583 17.0005 26.7583 17.0765C26.7583 17.2286 26.6569 17.3046 26.4542 17.3046L26.5682 17.7607L26.3781 17.8368L26.5682 17.9508L26.2641 18.0648L26.112 20.1176C26.2894 20.1176 26.5682 20.0922 26.9483 20.0415C27.3538 19.9909 27.7846 19.9402 28.2408 19.8895C28.6969 19.8135 29.1024 19.7628 29.4572 19.7374C29.812 19.7121 30.0274 19.7121 30.1034 19.7374L30.1795 19.8895L30.3695 19.6234C30.4709 19.6741 30.7117 19.6994 31.0918 19.6994C31.4973 19.6994 31.9914 19.6868 32.5743 19.6614C33.1572 19.6107 33.6894 19.5727 34.1709 19.5474C34.6777 19.522 35.0198 19.5094 35.1972 19.5094C35.1466 19.7121 35.2099 19.8008 35.3873 19.7754C35.5647 19.7501 35.7801 19.6994 36.0335 19.6234C36.3123 19.522 36.5404 19.484 36.7178 19.5094C37.3513 19.5854 37.9849 19.6614 38.6184 19.7374C39.252 19.7881 39.8856 19.8388 40.5191 19.8895C40.4177 19.9655 40.4558 20.0289 40.6332 20.0796C40.8106 20.1302 41.0133 20.1683 41.2414 20.1936C41.4948 20.2189 41.6595 20.2443 41.7355 20.2696L41.8876 20.7258H41.7736C41.6215 20.7258 41.4695 20.7131 41.3174 20.6878C41.1653 20.6371 41.026 20.5991 40.8993 20.5737C40.8486 20.6244 40.6332 20.6498 40.253 20.6498C39.8475 20.6498 39.3407 20.6371 38.7325 20.6117C38.1243 20.5611 37.5667 20.523 37.0599 20.4977C36.5531 20.447 36.2236 20.4343 36.0715 20.4597L35.9575 20.2696C35.8815 20.371 35.7548 20.447 35.5774 20.4977C35.4 20.5484 35.2099 20.5737 35.0072 20.5737C34.7791 20.5737 34.551 20.5611 34.3229 20.5357C34.1202 20.5104 33.9555 20.485 33.8288 20.4597L33.1445 20.7638C33.1192 20.7638 33.0431 20.7385 32.9164 20.6878C32.7897 20.6371 32.739 20.6498 32.7644 20.7258H31.8521V20.9539C31.8014 20.9285 31.7 20.9159 31.548 20.9159C31.1425 20.9159 30.5849 20.9919 29.8754 21.1439C29.1911 21.2706 28.6463 21.334 28.2408 21.334C28.1394 21.4607 27.8353 21.5621 27.3285 21.6381C26.8216 21.6888 26.4415 21.7395 26.1881 21.7902L26.2641 21.9422H26.1881C25.9853 22.1956 25.7953 22.6771 25.6179 23.3867C25.4658 24.0963 25.3264 24.8946 25.1997 25.7816C25.073 26.6432 24.9716 27.4668 24.8956 28.2524C24.8449 29.0127 24.8069 29.5829 24.7816 29.963L24.7055 31.5216L24.5915 32.2058V33.3462C25.1237 33.2956 25.7826 33.2322 26.5682 33.1562C27.3538 33.0548 28.1014 33.0041 28.811 33.0041C29.1658 33.0041 29.4826 33.0168 29.7613 33.0421C30.0654 33.0675 30.3315 33.1308 30.5596 33.2322V33.1942C30.7623 33.1688 30.9778 33.1562 31.2058 33.1562C31.4339 33.1308 31.662 33.1182 31.8901 33.1182C32.1435 33.1182 32.511 33.1435 32.9925 33.1942C33.4993 33.2195 33.7907 33.2322 33.8668 33.2322C33.6894 33.2322 33.55 33.2195 33.4486 33.1942L33.7527 33.2322C33.7781 33.2322 33.8161 33.2322 33.8668 33.2322C34.1709 33.2829 34.5383 33.3209 34.9692 33.3462C35.4 33.3716 35.7674 33.4476 36.0715 33.5743C36.401 33.6757 36.5784 33.8404 36.6037 34.0685C36.5784 34.1445 36.5277 34.1825 36.4517 34.1825C36.401 34.1825 36.3376 34.1445 36.2616 34.0685C36.2109 33.9925 36.1729 33.9545 36.1476 33.9545V34.1825L36.0715 33.9545C35.9702 34.0305 35.7421 34.0938 35.3873 34.1445C35.0579 34.1699 34.6777 34.1825 34.2469 34.1825C33.5373 34.1825 32.8024 34.1572 32.0421 34.1065C31.3072 34.0305 30.813 33.9798 30.5596 33.9545L30.2935 34.1825H29.0391L29.2671 34.2586C28.4055 34.2332 27.5692 34.2966 26.7583 34.4486C25.9473 34.6007 25.1364 34.7401 24.3254 34.8668L24.2114 35.9312C24.1607 35.8044 24.1227 35.7918 24.0973 35.8931C24.0973 35.9692 24.0973 36.0579 24.0973 36.1592C24.1227 36.2353 24.1607 36.2099 24.2114 36.0832L24.0593 36.9575L23.8692 37.1476C23.8946 37.249 23.9199 37.3503 23.9453 37.4517C23.996 37.5531 24.0593 37.6037 24.1353 37.6037C24.0846 38.3133 24.0213 39.0483 23.9453 39.8085C23.8692 40.5434 23.8059 41.2784 23.7552 42.0133L23.5651 42.0893L23.7552 42.1654L23.5651 42.3174L23.7552 42.3934C23.6285 42.5455 23.5651 42.7356 23.5651 42.9636C23.5651 43.0903 23.5778 43.2297 23.6031 43.3818C23.6285 43.5338 23.6538 43.6859 23.6792 43.8379C23.6031 43.7619 23.5525 43.7239 23.5271 43.7239C23.4511 43.7239 23.4131 43.7746 23.4131 43.876C23.4131 44.0534 23.5018 44.1927 23.6792 44.2941L23.4891 44.9783C23.5651 44.9783 23.6031 45.0164 23.6031 45.0924C23.6031 45.2698 23.5271 45.3838 23.3751 45.4345L23.5651 46.1188H23.3751V46.727L23.0329 47.1831H23.185C23.2103 47.2085 23.2103 47.2338 23.185 47.2592C23.1597 47.3098 23.1343 47.3225 23.109 47.2972C23.0329 47.4999 22.9062 47.6646 22.7288 47.7913C22.5514 47.9434 22.374 48.0448 22.1966 48.0954ZM22.2727 43.8379C22.298 43.6099 22.336 43.4071 22.3867 43.2297C22.4374 43.0523 22.4881 42.8496 22.5388 42.6215H22.3487L22.1966 42.4695C22.2727 42.2667 22.3107 42.0767 22.3107 41.8993C22.3107 41.7219 22.2727 41.5571 22.1966 41.4051L22.3487 41.177L22.2347 41.101L22.1966 41.025C22.2473 40.9996 22.2727 40.8602 22.2727 40.6068V40.1506C22.2727 40.0239 22.2727 39.9099 22.2727 39.8085C22.298 39.7072 22.3234 39.6311 22.3487 39.5804L22.2347 39.5044L22.1966 39.4284H22.3487C22.222 38.9215 22.1586 38.4274 22.1586 37.9459C22.1586 37.5911 22.1966 37.2236 22.2727 36.8435H22.4627C22.4374 36.6407 22.3994 36.4507 22.3487 36.2733C22.298 36.0705 22.2727 35.8805 22.2727 35.7031H22.4627C22.4374 35.5003 22.3487 35.3229 22.1966 35.1709C22.0953 35.2469 21.9306 35.2849 21.7025 35.2849C21.5758 35.2849 21.4491 35.2469 21.3223 35.1709H21.2463C21.0436 35.399 20.8282 35.513 20.6001 35.513C20.4734 35.513 20.3467 35.5003 20.22 35.475C20.1186 35.4243 20.0172 35.4243 19.9158 35.475C19.8145 35.5257 19.7765 35.5637 19.8018 35.589C19.8271 35.589 19.7511 35.6017 19.5737 35.627C19.5484 35.5003 19.5357 35.437 19.5357 35.437C19.5611 35.437 19.5357 35.4243 19.4597 35.399V35.551C19.3583 35.627 19.3203 35.6777 19.3456 35.7031C19.371 35.7031 19.295 35.7157 19.1176 35.7411C19.1176 35.7411 19.1049 35.6904 19.0795 35.589C19.0542 35.4877 19.0289 35.5003 19.0035 35.627C18.8261 35.7284 18.56 35.8298 18.2052 35.9312C17.8504 36.0072 17.5844 36.0325 17.407 36.0072C17.3816 36.1592 17.3563 36.2099 17.3309 36.1592C17.3056 36.1085 17.2169 36.1339 17.0648 36.2353C17.1662 36.2859 17.2042 36.3113 17.1789 36.3113C17.1535 36.3113 17.1155 36.362 17.0648 36.4633C17.2676 36.4887 17.4576 36.5267 17.635 36.5774C17.8124 36.6027 17.9898 36.6661 18.1672 36.7674C18.1165 36.8435 18.0912 36.9702 18.0912 37.1476L18.6234 37.0716C18.5727 37.2236 18.5854 37.3503 18.6614 37.4517L18.7374 37.3377C18.8135 37.3883 18.8768 37.4263 18.9275 37.4517C19.0035 37.4517 19.0669 37.477 19.1176 37.5277C19.0922 37.5531 19.0795 37.6037 19.0795 37.6798C19.0795 37.7305 19.0795 37.7685 19.0795 37.7938C19.1302 37.8192 19.1936 37.8318 19.2696 37.8318C19.371 37.8318 19.447 37.8572 19.4977 37.9079L19.4597 38.1359C19.6117 38.1613 19.7004 38.1993 19.7258 38.25C19.7765 38.3007 19.8525 38.3894 19.9539 38.5161L19.7638 38.9722C19.8652 38.9976 19.9665 39.0356 20.0679 39.0863C20.1946 39.1116 20.3086 39.1496 20.41 39.2003C20.5114 39.4537 20.6254 39.6691 20.7521 39.8465C20.8789 40.0239 20.9549 40.29 20.9802 40.6448C20.8535 40.6448 20.7775 40.6575 20.7521 40.6828C20.9549 40.7335 21.1323 40.8729 21.2843 41.101C21.4617 41.3037 21.5124 41.5318 21.4364 41.7852L21.5504 41.8993L21.4364 42.0893C21.7151 42.3428 21.8799 42.5835 21.9306 42.8116C21.9812 43.0143 22.0066 43.2044 22.0066 43.3818C22.0319 43.5338 22.1206 43.6859 22.2727 43.8379ZM39.858 33.6503C39.63 33.6503 39.3765 33.5617 39.0978 33.3843L38.9837 33.3462H38.9077C38.8824 33.3209 38.857 33.3082 38.8317 33.3082C38.8317 33.2575 38.8443 33.2195 38.8697 33.1942H38.6796L38.7176 32.738C38.8697 32.738 38.9584 32.7 38.9837 32.624L38.9077 32.586H39.0217V32.4719C39.0217 32.3199 39.0598 32.2058 39.1358 32.1298C39.2118 32.0284 39.3005 31.9271 39.4019 31.8257C39.4526 31.851 39.5032 31.8637 39.5539 31.8637C39.63 31.8637 39.6806 31.8891 39.706 31.9397C39.6806 31.7877 39.6806 31.6483 39.706 31.5216L39.82 31.5596C39.8707 31.3569 39.9848 31.2302 40.1621 31.1795C40.3649 31.1034 40.5423 31.0274 40.6943 30.9514L40.7323 31.1795L40.8084 31.1415V31.0274H40.9984C41.0491 30.8754 41.1378 30.7993 41.2645 30.7993L41.3026 30.9514C41.4039 30.85 41.518 30.7993 41.6447 30.7993C41.8474 30.8754 41.8854 31.0021 41.7587 31.1795C41.708 31.2048 41.6573 31.2808 41.6067 31.4076C41.556 31.2808 41.4926 31.2048 41.4166 31.1795L41.3786 31.4456L41.3406 31.2935H41.3026L41.3786 31.5976C41.3026 31.623 41.2519 31.661 41.2265 31.7117C41.2012 31.7623 41.1632 31.813 41.1125 31.8637C41.0618 31.9144 41.0111 31.9271 40.9604 31.9017C40.9097 31.8764 40.8591 31.9017 40.8084 31.9778C40.8591 31.9524 40.9351 31.9524 41.0365 31.9778C40.9604 31.9778 40.9097 31.9904 40.8844 32.0158L41.0365 32.0538C40.9351 32.1552 40.8591 32.2819 40.8084 32.4339C40.7577 32.5606 40.707 32.6873 40.6563 32.8141H40.4663V33.0421L40.5803 33.0801C40.5043 33.1562 40.4156 33.1942 40.3142 33.1942L40.3522 33.3843C40.3269 33.4349 40.2635 33.4983 40.1621 33.5743C40.0861 33.625 39.9848 33.6503 39.858 33.6503ZM37.5012 45.1304C37.3745 45.1304 37.2858 45.067 37.2351 44.9403L37.0831 45.0544L36.931 44.9403L37.0831 44.7503L37.007 44.5982H36.931V44.7503L36.7409 44.7123L36.6649 44.4842C36.6649 44.4842 36.6776 44.4842 36.7029 44.4842C36.7536 44.4588 36.7663 44.4335 36.7409 44.4081H36.5509C36.5509 44.3575 36.5509 44.3068 36.5509 44.2561C36.5762 44.1801 36.6142 44.1294 36.6649 44.104C36.5382 44.0027 36.4748 43.7619 36.4748 43.3818C36.4748 42.9763 36.4748 42.7229 36.4748 42.6215L36.5509 42.2794H36.7029L36.5509 41.6712C36.5509 41.6458 36.5889 41.6585 36.6649 41.7092C36.7409 41.7345 36.779 41.7472 36.779 41.7472V41.5571C36.7536 41.5065 36.7029 41.4558 36.6269 41.4051C36.5762 41.3291 36.5509 41.253 36.5509 41.177L36.5889 41.139C36.6903 40.9109 36.7536 40.6702 36.779 40.4167C36.8296 40.1633 36.8803 39.9226 36.931 39.6945L36.817 39.6185L36.855 39.2383C36.8803 39.1876 36.9057 39.1876 36.931 39.2383C36.9563 39.2637 36.969 39.2763 36.969 39.2763H37.1211C37.0957 39.2257 37.0577 39.175 37.007 39.1243C36.9817 39.0483 36.969 38.9596 36.969 38.8582L37.0831 38.7441C37.0324 38.7188 37.007 38.6554 37.007 38.5541C37.007 38.4527 37.0197 38.364 37.045 38.288C37.0704 38.1866 37.0957 38.1233 37.1211 38.0979L37.0831 37.9839C37.2098 37.9332 37.2605 37.8192 37.2351 37.6418C37.2351 37.439 37.2478 37.2616 37.2731 37.1096C37.3238 36.9322 37.4885 36.8561 37.7673 36.8815C37.742 36.8308 37.7166 36.7801 37.6913 36.7294C37.6659 36.6788 37.6279 36.6407 37.5772 36.6154H37.5012V36.3493L37.8433 35.9692L37.7673 35.8171L37.8813 35.7411V35.7031C37.8813 35.5764 37.932 35.4877 38.0334 35.437C38.1348 35.361 38.2361 35.3103 38.3375 35.2849L38.2995 35.1709H38.4515L38.4896 35.3229L38.4515 35.361H38.5656C38.5656 35.2596 38.5656 35.2089 38.5656 35.2089C38.5656 35.2089 38.6543 35.1962 38.8317 35.1709L38.9457 35.475C39.3005 35.5764 39.5286 35.7284 39.63 35.9312C39.7567 36.1339 39.8707 36.3873 39.9721 36.6914L40.0861 36.6154V36.6914C40.0861 36.8942 39.9974 37.0462 39.82 37.1476L39.782 37.1096C39.8074 37.1856 39.82 37.249 39.82 37.2996C39.82 37.3503 39.7567 37.401 39.63 37.4517C39.6046 37.6037 39.5666 37.7685 39.5159 37.9459C39.4652 38.1233 39.4146 38.288 39.3639 38.44C39.3639 38.3894 39.3385 38.3894 39.2878 38.44C39.2372 38.4654 39.2372 38.5034 39.2878 38.5541L39.1358 38.6301H39.2498C39.1991 38.8582 39.1104 39.0863 38.9837 39.3143C38.857 39.5424 38.8063 39.7705 38.8317 39.9986H38.6036L38.6416 40.2647L38.7176 40.2267C38.6923 40.3027 38.667 40.3787 38.6416 40.4548C38.6163 40.5054 38.6036 40.5815 38.6036 40.6828H38.4896L38.6036 40.7589H38.5656L38.6036 40.8349L38.4896 41.177H38.3375L38.4135 41.4811C38.3628 41.5318 38.2868 41.5191 38.1855 41.4431C38.1855 41.5952 38.2488 41.7219 38.3755 41.8232L38.2235 42.4695H38.0714L38.1474 42.5835L38.2235 42.5075L38.1474 43.3818V43.4198H38.4135L38.4515 43.6479C38.5783 43.5972 38.7176 43.5592 38.8697 43.5338C39.0217 43.5085 39.1611 43.4705 39.2878 43.4198L39.3639 43.2677L39.5919 43.3058V43.1537L39.5159 43.1157L39.782 42.9256V42.9636L39.82 42.8496L39.9341 42.8876C39.9341 42.8116 39.9594 42.7609 40.0101 42.7356C40.0608 42.6849 40.0988 42.6088 40.1241 42.5075L40.2762 42.6215L40.6183 42.2414C40.6183 42.2414 40.5803 42.216 40.5043 42.1654L40.5803 41.9753L40.8084 41.8993C40.783 41.8739 40.7704 41.8359 40.7704 41.7852C40.7704 41.7345 40.7957 41.6965 40.8464 41.6712C40.9224 41.6205 40.9731 41.5571 40.9984 41.4811C40.9731 41.4811 40.9604 41.4684 40.9604 41.4431C40.9604 41.3924 40.9731 41.3671 40.9984 41.3671L41.2645 41.3291C41.2899 41.2277 41.3026 41.139 41.3026 41.063C41.3026 40.9616 41.3152 40.8602 41.3406 40.7589C41.3659 40.7335 41.3786 40.7462 41.3786 40.7969C41.4039 40.8222 41.4166 40.8476 41.4166 40.8729C41.4673 40.9236 41.518 40.9236 41.5686 40.8729V40.7589L41.6827 40.7208L41.4546 40.6448L41.6447 40.6068H41.5686V40.4548C41.6954 40.3787 41.7841 40.252 41.8347 40.0746C41.9108 39.8719 41.9615 39.7072 41.9868 39.5804L42.1008 39.6185V39.3904L42.2149 39.3524C42.1388 39.3524 42.1262 39.327 42.1769 39.2763H42.3289C42.3036 38.9976 42.3669 38.7695 42.519 38.5921C42.671 38.3894 42.7724 38.1739 42.8231 37.9459H42.9751V37.7938H43.3173C43.3173 37.9459 43.2919 38.0219 43.2412 38.0219C43.2159 38.0219 43.1779 38.0726 43.1272 38.1739L43.2792 38.5541L43.2032 38.6681L43.0512 38.5921L43.1272 38.8202L43.0132 38.7441L43.0512 39.0483L42.9751 39.0102C42.9498 39.1116 42.8864 39.327 42.7851 39.6565C42.709 39.9606 42.6077 40.1506 42.481 40.2267L42.3289 40.1887C42.3289 40.2393 42.3416 40.29 42.3669 40.3407C42.3923 40.3914 42.4176 40.4421 42.443 40.4928L42.2529 40.8729L42.1008 40.7969C42.1262 41.025 42.0501 41.2784 41.8728 41.5571C41.6954 41.8106 41.5433 42.0386 41.4166 42.2414H41.1885C41.1885 42.3428 41.1758 42.4314 41.1505 42.5075C41.1252 42.5835 41.1125 42.6849 41.1125 42.8116L40.8464 42.9256L40.9984 42.9636L40.7323 43.0777V43.1157C40.7323 43.2171 40.6943 43.3184 40.6183 43.4198C40.5676 43.4958 40.5296 43.5592 40.5043 43.6099L40.2762 43.5719V43.8379H40.0861C40.0861 43.9647 40.0354 44.066 39.9341 44.1421C39.9341 44.1167 39.9087 44.104 39.858 44.104C39.8327 44.0787 39.8074 44.0787 39.782 44.104C39.8327 44.1547 39.8327 44.2181 39.782 44.2941C39.7313 44.3448 39.6806 44.3828 39.63 44.4081L39.5159 44.3701V44.5222C39.2878 44.7503 38.9711 44.8897 38.5656 44.9403L38.5276 45.0164L38.3375 45.0924V44.9403C38.1855 44.9657 38.0714 45.0037 37.9954 45.0544C37.9447 45.1051 37.818 45.1304 37.6152 45.1304L37.5772 45.0164H37.5392L37.5012 45.1304ZM38.3375 40.7969L38.4896 40.8729L38.5656 40.7589L38.3375 40.7969ZM50.5953 44.4842C50.418 44.5095 50.2025 44.4335 49.9491 44.2561C49.6957 44.0534 49.5183 43.8886 49.4169 43.7619L49.4549 43.4198C49.4296 43.4198 49.4043 43.4325 49.3789 43.4578C49.3536 43.4832 49.3282 43.4958 49.3029 43.4958L49.4549 42.5455C49.5056 42.5455 49.5183 42.4821 49.493 42.3554C49.493 42.2287 49.493 42.1527 49.493 42.1273L49.4549 42.0893L49.493 41.4431H49.645L49.4549 41.253L49.531 40.6828L49.607 40.6448L49.531 40.5308L49.607 40.1126L49.7591 40.0366C49.7591 39.9859 49.7337 39.9352 49.683 39.8846C49.6577 39.8085 49.645 39.7452 49.645 39.6945C49.645 39.5931 49.7337 39.4537 49.9111 39.2763L49.7591 39.2003L49.9871 39.0102L49.7971 38.9342C49.9238 38.8328 49.9491 38.7441 49.8731 38.6681C49.8224 38.5668 49.8351 38.4654 49.9111 38.364L50.1772 37.9839L49.9871 37.7938L50.0251 37.5657C50.1519 37.5657 50.2152 37.5277 50.2152 37.4517C50.2152 37.401 50.2025 37.3377 50.1772 37.2616C50.1519 37.1856 50.1392 37.1096 50.1392 37.0335H50.1772L50.2152 37.1096L50.3293 36.3493L50.4053 36.3113V35.7411H50.5953L50.4813 35.3229L50.4433 35.361L49.645 36.6534L49.4169 36.6914L49.1128 37.1096L49.3029 37.1856L49.1888 37.3757H48.8847C48.9354 37.477 48.9608 37.5531 48.9608 37.6037C48.9608 37.7051 48.8974 37.7938 48.7707 37.8698C48.644 37.9205 48.5553 37.9585 48.5046 37.9839L48.5806 38.212L48.2765 38.7061L48.0865 38.6301C48.0865 38.6301 48.0738 38.6554 48.0484 38.7061C48.0484 38.7568 48.0231 38.7822 47.9724 38.7822L47.7824 38.7061L47.7063 39.0102L47.8964 39.0483C47.795 39.1496 47.719 39.2383 47.6683 39.3143C47.6176 39.3904 47.4909 39.4284 47.2882 39.4284C47.2628 39.5044 47.2882 39.5804 47.3642 39.6565C47.1615 39.9352 46.9334 40.214 46.68 40.4928C46.4519 40.7715 46.1985 41.0123 45.9197 41.215H45.8057L45.5015 41.5191L45.3495 41.4431L45.2735 41.7092L44.5512 42.0133L44.4752 42.2034L44.2091 42.1273L44.057 42.3554H43.905C43.2968 42.3554 42.7899 42.1907 42.3844 41.8612C42.3084 41.7092 42.2704 41.5318 42.2704 41.3291C42.2197 41.3291 42.1817 41.3544 42.1564 41.4051C42.131 41.4304 42.1057 41.4558 42.0803 41.4811L41.8523 40.5308L41.9663 40.3027L41.8903 40.2267L41.9283 39.9226H42.0423L42.3464 38.5541C42.3718 38.5541 42.3844 38.5668 42.3844 38.5921C42.4098 38.6174 42.4351 38.6301 42.4605 38.6301C42.5112 38.6301 42.5365 38.5921 42.5365 38.5161C42.5365 38.44 42.5238 38.3894 42.4985 38.364L42.4225 38.402C42.4731 38.0219 42.6632 37.7431 42.9927 37.5657C42.942 37.515 42.9166 37.4517 42.9166 37.3757C42.9166 37.2996 42.9293 37.2363 42.9546 37.1856C43.0053 37.1096 43.0433 37.0335 43.0687 36.9575L43.1827 36.9955V36.9575L43.1447 36.8815L43.2968 36.8055C43.3221 36.8055 43.3094 36.7674 43.2588 36.6914C43.2334 36.6154 43.2714 36.6281 43.3728 36.7294V36.4633H43.6009C43.6769 36.362 43.7403 36.2479 43.7909 36.1212C43.8416 35.9945 43.8923 35.8678 43.943 35.7411H44.3231L44.2091 35.475L44.3992 35.2469L44.6272 35.3229L44.7413 34.8288L45.3495 34.3726L45.1594 34.2586L45.3875 34.1825L45.4255 34.4106C45.4255 34.1319 45.5396 33.9291 45.7676 33.8024H45.8057L45.8437 33.9925L45.8817 33.9164L45.8437 33.7264L46.2618 33.4223L46.2998 33.5743C46.3252 33.3209 46.4646 33.1308 46.718 33.0041C46.9714 32.8521 47.2375 32.7127 47.5163 32.586C47.795 32.4593 47.9471 32.3199 47.9724 32.1678L48.2765 32.2058C48.3019 32.1805 48.3145 32.1425 48.3145 32.0918C48.3399 32.0158 48.3272 31.9778 48.2765 31.9778C48.53 31.9524 48.8214 31.8637 49.1508 31.7117H49.531L49.3409 31.5976L49.3789 31.5596C49.8351 31.4329 50.3039 31.3695 50.7854 31.3695C51.1149 31.3695 51.419 31.4709 51.6977 31.6737L52.458 31.9778C52.4833 32.0031 52.458 32.0158 52.382 32.0158C52.3313 32.0158 52.306 32.0411 52.306 32.0918C52.306 32.1171 52.344 32.1552 52.42 32.2058C52.496 32.2312 52.5594 32.2439 52.6101 32.2439L52.6481 32.1298C52.6734 32.1298 52.6861 32.1805 52.6861 32.2819C52.7114 32.3579 52.7368 32.3706 52.7621 32.3199L53.0662 32.624H52.9142L52.8381 33.7264H52.6861L52.6101 33.9164L52.7241 34.1825C52.7241 34.2079 52.7114 34.2586 52.6861 34.3346C52.6607 34.3853 52.6481 34.3726 52.6481 34.2966V34.2206L52.534 34.2586C52.5594 34.3092 52.572 34.3853 52.572 34.4866C52.572 34.5627 52.5594 34.6514 52.534 34.7527C52.534 34.8288 52.5214 34.9175 52.496 35.0188C52.3946 35.0188 52.3313 35.0315 52.306 35.0568L52.1919 35.361C52.1666 35.4623 52.1792 35.5257 52.2299 35.551C52.2806 35.551 52.306 35.5637 52.306 35.589L52.2299 35.7411C52.2299 35.8425 52.2299 35.9438 52.2299 36.0452C52.2553 36.1466 52.2553 36.2606 52.2299 36.3873H51.9258L51.5077 36.4253C51.609 36.5774 51.7231 36.7041 51.8498 36.8055C51.9765 36.8815 52.0399 36.9195 52.0399 36.9195C52.0905 36.9702 52.1032 37.0209 52.0779 37.0716C52.0272 37.1983 51.9765 37.325 51.9258 37.4517C51.8751 37.5784 51.8244 37.7051 51.7738 37.8318L51.8878 37.8698C51.9131 37.8952 51.9005 37.9079 51.8498 37.9079C51.8244 37.9079 51.8244 37.9205 51.8498 37.9459L51.8878 37.9839C51.9131 38.0092 51.9258 38.0472 51.9258 38.0979C51.9258 38.1993 51.8878 38.3007 51.8118 38.402C51.7357 38.5034 51.6724 38.6174 51.6217 38.7441H51.7357C51.7357 38.9469 51.7231 39.2257 51.6977 39.5804C51.6724 39.9099 51.5964 40.1506 51.4697 40.3027H51.4316V40.1126H51.2416L51.5077 40.4928C51.4063 40.8222 51.3429 41.177 51.3176 41.5571C51.2923 41.9119 51.2542 42.2667 51.2036 42.6215L51.4697 42.9636H51.5077V42.6975L51.7357 42.5455H51.9258L52.0018 42.8116L52.0779 42.3554C52.0779 42.3301 52.0779 42.3174 52.0779 42.3174C52.1032 42.3174 52.1159 42.3174 52.1159 42.3174H52.1919C52.2426 42.14 52.2553 42.0133 52.2299 41.9373C52.382 41.7345 52.5594 41.4684 52.7621 41.139C52.9902 40.7842 53.2056 40.4421 53.4083 40.1126C53.6111 39.7578 53.7378 39.4791 53.7885 39.2763C53.8392 39.2763 53.8772 39.3017 53.9025 39.3524C53.9279 39.403 53.9532 39.4284 53.9785 39.4284C54.0039 39.4284 54.0039 39.3777 53.9785 39.2763C53.9785 39.1496 53.9532 39.0989 53.9025 39.1243C53.9785 39.0229 54.0292 38.9089 54.0546 38.7822C54.0799 38.6301 54.1433 38.5541 54.2446 38.5541C54.3713 38.5541 54.4347 38.5921 54.4347 38.6681C54.4347 38.7188 54.422 38.7822 54.3967 38.8582C54.3713 38.9089 54.3587 38.9596 54.3587 39.0102L54.3207 39.8085L54.0926 39.9986L54.1686 40.0366H54.2066L54.0926 40.1126L54.2066 40.2267H54.0926C54.0926 40.3534 54.0672 40.4801 54.0166 40.6068C53.9912 40.7335 53.9532 40.8602 53.9025 40.9869L53.6744 41.063L53.7505 41.215L53.5604 41.4811L53.3323 41.5191L52.8381 42.7736L52.6101 42.7356L52.6481 43.0397L51.6597 44.1801L51.4697 44.1421L51.4316 44.3701L51.2796 44.4842H50.5953ZM43.7149 41.063H43.7909L44.6272 40.6448C44.6779 40.6955 44.6906 40.7208 44.6653 40.7208C44.6399 40.7208 44.6272 40.7208 44.6272 40.7208C44.6272 40.7969 44.6526 40.8602 44.7033 40.9109C44.754 40.9363 44.792 40.9489 44.8173 40.9489L44.7413 40.5688C44.792 40.4167 44.8933 40.3787 45.0454 40.4548L45.0074 40.5308L45.2735 40.4167H45.0834C45.0581 40.3407 45.0834 40.3027 45.1594 40.3027L45.7676 40.1506C45.793 40.1253 45.755 40.1126 45.6536 40.1126C45.5522 40.0873 45.5015 40.0619 45.5015 40.0366L45.7296 39.9226C45.9324 39.8212 46.0971 39.7072 46.2238 39.5804C46.3505 39.4537 46.4139 39.3904 46.4139 39.3904C46.4646 39.4664 46.5406 39.5044 46.642 39.5044H46.68V39.0102L46.9461 38.7441L47.0981 38.7822L47.0601 38.5921L47.3642 38.4781C47.4149 38.25 47.5289 38.0852 47.7063 37.9839C47.8837 37.8572 48.0231 37.7178 48.1245 37.5657H48.0484C48.0991 37.439 48.2005 37.363 48.3526 37.3377C48.5046 37.287 48.5933 37.1856 48.6186 37.0335L48.5426 36.8815L48.9608 36.5394L48.8847 36.5014C48.9354 36.4507 48.9608 36.4 48.9608 36.3493C48.9861 36.2733 49.0495 36.2479 49.1508 36.2733L49.3409 36.3113V35.9312L49.493 35.6651H49.7971C49.8477 35.513 49.7971 35.437 49.645 35.437L50.1772 34.7147L50.4053 34.8288V34.7527L50.1772 34.6767L50.3293 34.4486L50.4813 34.4106L50.5193 34.3726C50.4433 34.3726 50.418 34.3473 50.4433 34.2966C50.4686 34.2206 50.5193 34.1952 50.5953 34.2206L50.6334 33.9164L50.8234 33.8404H50.7474L50.8234 33.6503H51.0895L51.0135 33.0801L51.0895 33.0041L50.9755 32.8901C50.9248 33.0675 50.7981 33.1688 50.5953 33.1942C50.3926 33.2195 50.2152 33.2322 50.0632 33.2322C50.1138 33.2575 50.1265 33.3082 50.1012 33.3843C50.0758 33.4349 50.0378 33.4476 49.9871 33.4223L49.7591 33.3082H49.645L49.7591 33.5743L49.4169 33.4983L49.493 33.6503H49.3029V33.8024L48.9608 34.0305C48.9354 34.0305 48.8214 34.0178 48.6186 33.9925C48.4413 33.9671 48.4032 34.0051 48.5046 34.1065H48.5806C48.5806 34.2332 48.5426 34.2839 48.4666 34.2586C48.3906 34.2332 48.3399 34.2206 48.3145 34.2206L48.3906 34.2586C47.9091 34.4866 47.4782 34.8161 47.0981 35.2469C47.1488 35.2723 47.1361 35.3103 47.0601 35.361C47.0094 35.4116 46.9587 35.399 46.908 35.3229V35.551L46.832 35.475C46.832 35.6017 46.756 35.7157 46.6039 35.8171C46.4519 35.8931 46.3125 35.9565 46.1858 36.0072C46.1098 36.1592 46.0211 36.3113 45.9197 36.4633C45.8183 36.6154 45.7043 36.7294 45.5776 36.8055L45.5015 36.7674L45.0834 37.0335V37.1476C45.0834 37.401 45.0074 37.6291 44.8553 37.8318C44.7286 38.0092 44.5892 38.1993 44.4372 38.402L44.3231 38.288L44.2091 38.7822H43.943V39.2763H43.6009C43.5755 39.2763 43.5755 39.3017 43.6009 39.3524C43.6262 39.403 43.6642 39.4411 43.7149 39.4664C43.6896 39.6691 43.6262 39.8719 43.5249 40.0746C43.4488 40.252 43.3981 40.4421 43.3728 40.6448H43.5629C43.5122 40.8476 43.5882 40.9363 43.7909 40.9109L43.7149 41.063ZM43.7909 39.5044C43.7909 39.5298 43.7656 39.5171 43.7149 39.4664V39.4284L43.7909 39.4664V39.5044ZM59.0985 47.2211C59.0985 47.1451 59.0605 47.0691 58.9844 46.9931C58.9084 46.9424 58.8451 46.9424 58.7944 46.9931C58.693 47.0944 58.5536 47.1451 58.3762 47.1451C58.0468 47.1451 57.6793 47.0057 57.2738 46.727C56.8937 46.4735 56.6149 46.2581 56.4375 46.0807H56.2855L56.2095 45.8146H55.9814C55.8293 45.6372 55.6393 45.3712 55.4112 45.0164C55.2084 44.6362 55.0184 44.2434 54.841 43.8379C54.6889 43.4071 54.6129 43.0397 54.6129 42.7356C54.6129 42.5328 54.6382 42.3934 54.6889 42.3174C54.5115 42.216 54.3848 42.0386 54.3088 41.7852C54.2581 41.5318 54.2328 41.253 54.2328 40.9489C54.2328 40.5181 54.2581 40.1506 54.3088 39.8465L54.1947 39.6945V37.1096C54.2454 37.0842 54.2961 37.0335 54.3468 36.9575C54.4228 36.8815 54.4988 36.8942 54.5749 36.9955L54.2708 36.4633C54.3215 36.4633 54.3848 36.438 54.4608 36.3873C54.5369 36.3366 54.5749 36.2859 54.5749 36.2353C54.4482 36.1086 54.3848 35.9058 54.3848 35.627C54.3848 35.5764 54.3848 35.513 54.3848 35.437C54.3848 35.361 54.3975 35.2976 54.4228 35.2469L54.6129 35.0949C54.4862 34.9935 54.4228 34.8414 54.4228 34.6387C54.4228 34.4866 54.4355 34.3219 54.4608 34.1445C54.5115 33.9671 54.5495 33.8277 54.5749 33.7264C54.5749 33.6503 54.6636 33.625 54.841 33.6503C55.0184 33.6503 55.0691 33.5743 54.993 33.4223L54.803 32.5099L55.0691 32.3579C54.9677 32.2312 54.917 32.0791 54.917 31.9017C54.917 31.775 54.917 31.661 54.917 31.5596C54.9423 31.4329 54.9677 31.3189 54.993 31.2175H55.0691L55.3732 31.5596C55.3985 31.5343 55.4112 31.4963 55.4112 31.4456C55.4112 31.3695 55.3605 31.3189 55.2591 31.2935C55.1577 31.2428 55.0944 31.1668 55.0691 31.0654C55.2464 31.0148 55.3098 30.85 55.2591 30.5713C55.2084 30.2672 55.2971 30.0391 55.5252 29.887L55.4492 29.2788C55.4999 29.2788 55.5632 29.2661 55.6393 29.2408C55.7153 29.1901 55.7533 29.1268 55.7533 29.0507L55.5252 28.8226C55.6773 28.6706 55.804 28.3665 55.9053 27.9103C56.0321 27.4288 56.1461 26.9473 56.2475 26.4658C56.3488 25.959 56.4375 25.5915 56.5136 25.3634C56.5642 25.3127 56.6023 25.3381 56.6276 25.4394C56.6529 25.5155 56.6656 25.5535 56.6656 25.5535C56.691 25.6042 56.7163 25.5788 56.7416 25.4775C56.7923 25.3761 56.7923 25.3127 56.7416 25.2874H56.5136L56.8177 24.7552L56.6656 24.5271C56.767 24.0963 56.9064 23.6782 57.0838 23.2727C57.2865 22.8672 57.4005 22.4491 57.4259 22.0182C57.4512 22.0182 57.5146 21.9802 57.616 21.9042C57.7427 21.8028 57.806 21.7521 57.806 21.7521L57.654 21.5621C57.654 21.3847 57.7427 21.0552 57.9201 20.5737C58.1228 20.0669 58.3255 19.5727 58.5283 19.0912C58.7564 18.6097 58.8957 18.2803 58.9464 18.1029L59.7067 18.0268L59.8968 18.407L60.0868 18.1789C60.2135 18.2549 60.3276 18.3563 60.4289 18.483C60.5303 18.5844 60.5937 18.7111 60.619 18.8631L60.9991 19.0152L60.8851 19.2433C61.2906 19.37 61.5567 19.7121 61.6834 20.2696C61.8354 20.8018 61.9115 21.372 61.9115 21.9802C61.9368 22.5631 61.9495 23.0319 61.9495 23.3867C61.8481 23.3867 61.7467 23.3614 61.6454 23.3107C61.6961 23.4628 61.7341 23.6021 61.7594 23.7288C61.7848 23.8556 61.7974 23.9949 61.7974 24.147L61.4173 24.5271C61.5693 24.6538 61.6454 24.8186 61.6454 25.0213C61.6454 25.224 61.5693 25.4395 61.4173 25.6675C61.2906 25.8956 61.1639 26.111 61.0372 26.3138L61.1892 26.4658L60.8091 27.7583L60.505 27.9483C60.4796 27.9737 60.467 28.0117 60.467 28.0624C60.467 28.2398 60.5176 28.3411 60.619 28.3665L60.2389 28.6706L60.4289 28.8987C60.2769 29.1014 60.1375 29.3295 60.0108 29.5829C59.9094 29.811 59.8081 30.0391 59.7067 30.2672V30.1911C59.6813 30.1911 59.6307 30.3178 59.5546 30.5713C59.4786 30.8247 59.4153 31.0274 59.3646 31.1795H59.1365L58.9844 31.7497C58.8831 31.6737 58.807 31.6737 58.7564 31.7497C58.731 31.8004 58.807 31.8257 58.9844 31.8257L58.8324 32.2058L58.4522 32.3579C58.579 32.5353 58.5283 32.7887 58.3002 33.1182C58.0975 33.4476 57.9327 33.6757 57.806 33.8024L57.654 33.7264V33.8024L57.4259 34.1825C57.4766 34.2079 57.5146 34.1952 57.5399 34.1445C57.5906 34.0685 57.6286 34.0305 57.654 34.0305C57.6793 34.0305 57.6793 34.0685 57.654 34.1445C57.6286 34.1952 57.6033 34.2079 57.5779 34.1825L57.2738 34.4106V34.5627C57.2738 34.7401 57.2231 34.8541 57.1218 34.9048C57.0457 34.9555 56.9571 35.0062 56.8557 35.0568C56.7797 35.1075 56.7416 35.2723 56.7416 35.551H56.4375C56.4882 35.627 56.5136 35.7157 56.5136 35.8171C56.5136 35.9945 56.4629 36.1592 56.3615 36.3113C56.2601 36.438 56.1841 36.5774 56.1334 36.7294L56.3615 37.1096L56.2855 37.5657C56.2348 37.5657 56.1841 37.5657 56.1334 37.5657C56.1081 37.5404 56.0827 37.5277 56.0574 37.5277C55.9053 37.5277 55.8293 37.5657 55.8293 37.6418C55.8293 37.6924 55.88 37.7685 55.9814 37.8698C56.0827 37.9712 56.1588 38.0472 56.2095 38.0979C56.1588 38.1739 56.1334 38.288 56.1334 38.44C56.1334 38.6174 56.1588 38.7948 56.2095 38.9722C56.2601 39.1243 56.2601 39.289 56.2095 39.4664H56.0954L56.1334 39.8846L55.9814 39.9986L56.0954 41.177C56.1968 41.2784 56.2601 41.5191 56.2855 41.8993C56.3362 42.2541 56.3615 42.6469 56.3615 43.0777C56.4629 43.1284 56.5389 43.2804 56.5896 43.5338C56.6656 43.7873 56.729 44.0534 56.7797 44.3321C56.8303 44.5855 56.8684 44.7756 56.8937 44.9023L57.1218 44.9783L57.2738 45.4345L57.73 45.7006C57.6286 45.802 57.6286 45.8907 57.73 45.9667C57.8567 46.0427 57.9327 46.0301 57.9581 45.9287C58.3129 46.1314 58.5283 46.2581 58.6043 46.3088C58.7057 46.3595 58.807 46.3848 58.9084 46.3848C59.0351 46.4102 59.3139 46.4609 59.7447 46.5369L60.2389 46.2328C60.2135 46.3342 60.2515 46.3722 60.3529 46.3468C60.4796 46.3215 60.505 46.2708 60.4289 46.1948C60.5303 46.1441 60.7204 46.0554 60.9991 45.9287C61.3033 45.802 61.4933 45.764 61.5693 45.8146L61.4933 46.1948H61.2652C61.0878 46.4482 60.7837 46.6509 60.3529 46.803L60.2769 46.689L59.7447 47.1451L59.0985 47.2211ZM56.7416 33.2702C56.7923 33.3462 56.8177 33.4349 56.8177 33.5363C56.8177 33.6123 56.8177 33.701 56.8177 33.8024H57.1218C57.1725 33.625 57.2231 33.4603 57.2738 33.3082C57.3245 33.1562 57.4512 33.0675 57.654 33.0421L57.806 33.1182L57.4259 32.8901H57.654C57.654 32.7634 57.6666 32.6367 57.692 32.5099C57.7427 32.3832 57.7807 32.2565 57.806 32.1298H57.882L57.9581 32.4719C57.9327 32.0918 58.0341 31.7243 58.2622 31.3695C58.4903 30.9894 58.731 30.6853 58.9844 30.4572C58.9084 30.4572 58.8704 30.4319 58.8704 30.3812C58.8704 30.3305 58.8451 30.2925 58.7944 30.2672L59.3266 29.6589C59.2252 29.5829 59.1745 29.5449 59.1745 29.5449C59.1998 29.5196 59.2125 29.4562 59.2125 29.3548C59.2885 29.3295 59.3519 29.3041 59.4026 29.2788C59.4786 29.2535 59.542 29.2281 59.5926 29.2028C59.5166 29.0507 59.4786 28.924 59.4786 28.8226L59.5166 28.7466H59.7447C59.7447 28.3411 59.7954 28.1004 59.8968 28.0244C59.9981 27.9483 60.1122 27.7583 60.2389 27.4542L60.1248 27.074C60.3783 26.8713 60.5176 26.7066 60.543 26.5799C60.5937 26.4278 60.619 26.1997 60.619 25.8956C60.6697 25.8196 60.7204 25.7689 60.7711 25.7436C60.8217 25.7182 60.8598 25.6549 60.8851 25.5535C60.7837 25.5788 60.7331 25.5915 60.7331 25.5915C60.7331 25.5915 60.7077 25.5281 60.657 25.4014C60.8344 25.1987 60.9358 24.9706 60.9611 24.7172C61.0118 24.4384 61.0878 24.1723 61.1892 23.9189C61.0878 23.9189 61.0372 23.8936 61.0372 23.8429C61.0372 23.7922 61.0372 23.7162 61.0372 23.6148C61.1132 23.4881 61.1639 23.3107 61.1892 23.0826C61.2146 22.8292 61.2272 22.5631 61.2272 22.2843C61.2272 22.0056 61.2146 21.7395 61.1892 21.4861C61.1892 21.2073 61.1892 20.9919 61.1892 20.8398L60.9991 20.7638C60.9485 20.7131 60.9104 20.6624 60.8851 20.6117C60.8598 20.5357 60.8344 20.485 60.8091 20.4597H60.7331C60.6824 20.7891 60.543 21.0932 60.3149 21.372C60.1122 21.6254 59.9728 21.9295 59.8968 22.2843L59.9728 22.3223C59.9474 22.4237 59.8841 22.4997 59.7827 22.5504C59.7067 22.6011 59.6433 22.6771 59.5926 22.7785C59.7194 22.9052 59.7827 23.0193 59.7827 23.1206C59.7827 23.2727 59.7067 23.4247 59.5546 23.5768C59.4026 23.7288 59.2885 23.8682 59.2125 23.9949C59.3392 24.0203 59.4026 24.033 59.4026 24.033C59.4026 24.033 59.4279 24.071 59.4786 24.147C59.3012 24.3751 59.1998 24.6412 59.1745 24.9453C59.1492 25.2494 59.0351 25.5155 58.8324 25.7436V25.6675C58.7817 25.6168 58.7564 25.5915 58.7564 25.5915C58.7817 25.5662 58.731 25.5408 58.6043 25.5155C58.6296 25.5915 58.655 25.6675 58.6803 25.7436C58.731 25.7942 58.769 25.8576 58.7944 25.9336C58.693 25.959 58.6423 25.9716 58.6423 25.9716C58.6677 25.9716 58.655 26.0223 58.6043 26.1237L58.7183 26.1617L58.4522 26.2757C58.5283 26.3771 58.5663 26.5165 58.5663 26.6939C58.5663 26.9473 58.4776 27.2134 58.3002 27.4922C58.1228 27.7456 58.0088 27.9863 57.9581 28.2144C58.0341 28.2905 58.0721 28.3792 58.0721 28.4805C58.0721 28.5819 58.0468 28.7086 57.9961 28.8607C57.9454 28.9874 57.9074 29.1014 57.882 29.2028C57.806 29.2281 57.73 29.2661 57.654 29.3168C57.5779 29.3675 57.5019 29.4309 57.4259 29.5069H57.5779L57.806 29.6589C57.4005 30.2165 57.2231 30.812 57.2738 31.4456C57.1218 31.5216 57.0331 31.6483 57.0077 31.8257C56.9824 31.9778 56.9697 32.1298 56.9697 32.2819C57.0204 32.3579 57.0457 32.3832 57.0457 32.3579C57.0711 32.3326 57.0964 32.3832 57.1218 32.5099C56.9697 32.662 56.8937 32.776 56.8937 32.8521C56.8937 32.8774 56.9064 32.9281 56.9317 33.0041C56.9571 33.0548 56.9697 33.1435 56.9697 33.2702H56.7416ZM64.3146 47.2211C64.3146 47.2718 64.3907 47.3352 64.5427 47.4112C64.6948 47.5126 64.7581 47.6013 64.7328 47.6773L63.8965 47.4872C63.8458 47.0564 63.7318 46.6383 63.5544 46.2328C63.377 45.8527 63.1869 45.4979 62.9842 45.1684H63.1362C63.0095 44.991 62.9208 44.7883 62.8701 44.5602C62.8194 44.3321 62.7941 44.0914 62.7941 43.8379C62.7941 43.7112 62.7941 43.5972 62.7941 43.4958C62.7941 43.3945 62.8068 43.2931 62.8321 43.1917L62.9842 43.3438V43.0397C62.8828 42.989 62.8068 42.8623 62.7561 42.6595C62.7054 42.4568 62.6801 42.2287 62.6801 41.9753C62.6801 41.7219 62.6801 41.4684 62.6801 41.215C62.7054 40.9363 62.7181 40.6955 62.7181 40.4928C62.7181 40.3154 62.7054 40.1633 62.6801 40.0366C62.6801 39.9099 62.6547 39.8212 62.604 39.7705H62.2239L61.8438 39.3524L61.0075 39.2383L60.8554 38.8962C60.9821 38.7441 61.0708 38.5921 61.1215 38.44C61.1722 38.288 61.3116 38.1993 61.5396 38.1739C61.4636 38.0472 61.4256 37.9839 61.4256 37.9839C61.4256 37.9585 61.4256 37.9459 61.4256 37.9459C61.451 37.9459 61.4636 37.9459 61.4636 37.9459C61.5143 37.9459 61.5777 37.9712 61.6537 38.0219C61.7551 38.0472 61.8184 38.0472 61.8438 38.0219L61.7677 37.8318L62.9081 37.7178C62.8321 37.5911 62.7814 37.4517 62.7561 37.2996C62.7307 37.1222 62.7181 36.9448 62.7181 36.7674C62.7181 36.6407 62.7181 36.5267 62.7181 36.4253C62.7181 36.2986 62.7307 36.1846 62.7561 36.0832C62.9335 36.0832 63.0348 36.0579 63.0602 36.0072C63.0855 35.9312 63.0095 35.8551 62.8321 35.7791L62.7561 35.3229C62.7814 35.3483 62.8068 35.361 62.8321 35.361C62.8828 35.361 62.9081 35.2342 62.9081 34.9808C62.9081 34.7781 62.8955 34.5753 62.8701 34.3726C62.8448 34.1445 62.8321 34.0178 62.8321 33.9925L62.9081 34.1065L62.9842 33.9545L63.0602 32.9661L63.2122 33.1182V31.1795L63.2883 31.4456V31.0274L63.2122 31.1415L63.1362 30.9894C63.2376 30.8627 63.2756 30.736 63.2503 30.6093C63.2249 30.4826 63.2122 30.3559 63.2122 30.2291C63.2122 30.1785 63.2122 30.1278 63.2122 30.0771C63.2376 30.0264 63.2629 29.9757 63.2883 29.925H63.4403L63.3643 29.3168L63.5924 29.0887L63.4403 28.7846C63.4403 28.7846 63.4657 28.6706 63.5163 28.4425C63.567 28.1891 63.6177 27.923 63.6684 27.6442C63.7444 27.3401 63.8205 27.1374 63.8965 27.036C63.8205 26.8333 63.7824 26.6432 63.7824 26.4658C63.7824 26.2124 63.8331 25.959 63.9345 25.7055C64.0359 25.4521 64.1499 25.2367 64.2766 25.0593L64.1246 24.299C64.2259 24.4004 64.2766 24.3751 64.2766 24.223C64.2766 24.0456 64.2259 24.0203 64.1246 24.147L64.4667 23.6148L64.2766 23.4628C64.4287 23.2347 64.5174 22.9306 64.5427 22.5504C64.5681 22.145 64.6061 21.7648 64.6567 21.41C64.7328 21.0299 64.9102 20.7765 65.1889 20.6498C65.0876 20.447 65.0369 20.257 65.0369 20.0796C65.0369 19.8261 65.1636 19.5347 65.417 19.2052L65.227 19.0532C65.5564 18.6984 65.8098 18.3183 65.9872 17.9128C66.19 17.5073 66.4307 17.3046 66.7095 17.3046C66.9122 17.3046 67.1276 17.4186 67.3557 17.6467C67.6091 17.8748 67.9259 18.2676 68.306 18.8251L68.6482 18.9772L68.7622 18.6731L69.2184 18.7491L69.5225 19.0532H69.5985L70.1307 19.9655L69.9786 20.2696L70.2067 20.3457L69.9786 20.4217C69.9786 20.447 70.004 20.485 70.0547 20.5357C70.1307 20.5611 70.1814 20.5991 70.2067 20.6498L70.0547 20.7258H70.1307C70.3334 20.8778 70.4348 21.1059 70.4348 21.41C70.4855 21.4861 70.4728 21.7521 70.3968 22.2083C70.3461 22.6391 70.2574 23.1333 70.1307 23.6908C70.004 24.2484 69.8773 24.7552 69.7505 25.2114C69.6492 25.6675 69.5732 25.9463 69.5225 26.0477L69.4464 25.9716L69.3704 26.1237L69.4464 26.5038L69.0663 26.884C69.117 27.0867 69.0916 27.3275 68.9903 27.6062C68.8889 27.8596 68.7749 28.075 68.6482 28.2524L68.306 28.3285L68.4961 28.4805C68.3187 28.5312 68.2047 28.7339 68.154 29.0887C68.1286 29.4435 68.0273 29.697 67.8499 29.849H67.7738C67.5204 29.849 67.3684 29.9757 67.3177 30.2291L67.0896 30.3052L67.4697 30.2291C67.4951 30.2545 67.5078 30.2925 67.5078 30.3432C67.5078 30.4192 67.4571 30.4826 67.3557 30.5332C67.2797 30.5586 67.2163 30.5206 67.1656 30.4192C67.191 30.698 67.1276 30.9387 66.9756 31.1415C66.8489 31.3442 66.7602 31.5723 66.7095 31.8257H66.6334L66.5574 31.4456C66.5574 31.5976 66.5321 31.7497 66.4814 31.9017L66.5574 31.8257L66.6334 31.9778C66.4561 32.2819 66.2533 32.5986 66.0252 32.9281C65.8225 33.2322 65.6198 33.5236 65.417 33.8024L65.1889 33.6884L65.227 33.9925L64.7708 34.6007H64.6187V34.7147L64.2006 35.7031C64.2259 35.7791 64.2386 35.8551 64.2386 35.9312C64.2386 36.0072 64.2386 36.0832 64.2386 36.1592C64.2386 36.4887 64.1879 36.8181 64.0865 37.1476C64.0105 37.4517 63.9218 37.7431 63.8205 38.0219L64.0485 38.1739C64.1499 38.3007 64.1752 38.402 64.1246 38.4781C64.0739 38.5287 64.0485 38.5794 64.0485 38.6301V38.7822C64.0992 38.7822 64.1372 38.7568 64.1626 38.7061C64.2133 38.6301 64.2513 38.5921 64.2766 38.5921L64.3526 38.7822C64.53 38.6301 64.7581 38.4527 65.0369 38.25C65.3156 38.0219 65.5691 37.8952 65.7972 37.8698L65.8732 37.6798L66.2533 37.5657L66.5574 37.2236L66.6334 37.2616C66.6334 36.9322 66.8108 36.8181 67.1656 36.9195C67.2923 36.4127 67.5458 36.0705 67.9259 35.8931C68.306 35.6904 68.6988 35.551 69.1043 35.475C69.1043 35.4243 69.1297 35.3736 69.1803 35.3229C69.231 35.2469 69.2437 35.1962 69.2184 35.1709C69.193 35.1202 69.1423 35.0949 69.0663 35.0949C68.9903 35.0949 68.9396 35.0822 68.9143 35.0568H68.9523C69.079 34.9301 69.2057 34.8541 69.3324 34.8288C69.4845 34.7781 69.6238 34.7021 69.7505 34.6007L69.5225 34.4486C69.7252 34.3219 69.9533 34.1192 70.2067 33.8404C70.2574 33.9164 70.2954 33.9545 70.3207 33.9545C70.3968 33.9545 70.4601 33.9164 70.5108 33.8404C70.5868 33.7644 70.5868 33.701 70.5108 33.6503C70.7389 33.5236 70.8529 33.3462 70.8529 33.1182L71.119 33.1942L71.5752 32.3579H71.7653C71.892 32.2058 72.006 32.0538 72.1074 31.9017C72.2341 31.7243 72.3608 31.5723 72.4875 31.4456C72.4875 31.4202 72.4875 31.4076 72.4875 31.4076C72.5129 31.4076 72.5255 31.4076 72.5255 31.4076C72.5762 31.4076 72.6269 31.4582 72.6776 31.5596C72.7283 31.6356 72.7283 31.699 72.6776 31.7497C72.4242 31.851 72.2214 32.1171 72.0694 32.548C71.9173 32.9788 71.6639 33.2956 71.3091 33.4983V33.8024L70.8149 34.1445C70.7642 34.55 70.5615 34.9175 70.2067 35.2469C69.8773 35.551 69.5732 35.8298 69.2944 36.0832L69.4464 36.1592L68.9523 36.2353L69.2184 36.4633H69.1043C68.9523 36.6661 68.7622 36.8942 68.5341 37.1476C68.306 37.3757 68.0399 37.515 67.7358 37.5657V37.8698C67.5331 37.9966 67.3304 38.1739 67.1276 38.402C66.9249 38.6048 66.7602 38.8202 66.6334 39.0483C66.5321 39.0483 66.4814 39.0102 66.4814 38.9342L66.0252 39.2383V39.3143C66.0252 39.4411 65.9492 39.5424 65.7972 39.6185L65.8732 40.0746H66.0252C66.1013 40.0746 66.1773 40.0746 66.2533 40.0746C66.3293 40.0746 66.4054 40.0619 66.4814 40.0366V40.0746C66.4814 40.1506 66.5321 40.214 66.6334 40.2647C66.7348 40.3154 66.8362 40.3407 66.9376 40.3407C66.9629 40.4421 66.9882 40.5561 67.0136 40.6828C67.0643 40.8095 67.1403 40.8982 67.2417 40.9489L67.5458 40.7969L67.6978 41.139L67.5838 41.215L67.5458 41.253H67.5838C67.6345 41.253 67.6978 41.2277 67.7738 41.177C67.8499 41.101 67.8752 41.0376 67.8499 40.9869C68.0526 41.2657 68.3187 41.4938 68.6482 41.6712C68.9776 41.8232 69.117 42.102 69.0663 42.5075H69.5985C69.8012 42.6342 70.0927 42.8623 70.4728 43.1917C70.8529 43.5212 71.0683 43.8253 71.119 44.104L71.4612 44.2181L72.0314 45.0164L72.6396 45.3205L72.8296 46.1568C72.8043 46.1568 72.779 46.1568 72.7536 46.1568C72.7536 46.1821 72.7409 46.1948 72.7156 46.1948C72.5382 46.1948 72.3735 46.0934 72.2214 45.8907C72.0947 45.6879 71.9933 45.5359 71.9173 45.4345C71.9173 45.4599 71.8413 45.4979 71.6892 45.5486C71.5625 45.5992 71.5372 45.5612 71.6132 45.4345L71.157 45.1684L71.119 44.8263L70.5108 44.7123C70.4855 44.7123 70.4855 44.7123 70.5108 44.7123C70.5362 44.6869 70.5488 44.6742 70.5488 44.6742C70.5488 44.6236 70.4981 44.5729 70.3968 44.5222C70.3207 44.4715 70.2574 44.4715 70.2067 44.5222C70.1053 44.4715 69.9786 44.3955 69.8266 44.2941C69.6999 44.1927 69.6238 44.0787 69.5985 43.952C69.5985 43.9773 69.5732 43.9773 69.5225 43.952C69.4718 43.9266 69.4718 43.914 69.5225 43.914C69.2184 43.8126 69.0663 43.6606 69.0663 43.4578H68.6101L68.3441 43.0397C68.1413 43.0903 67.9386 43.027 67.7358 42.8496C67.5584 42.6722 67.3684 42.5582 67.1656 42.5075L67.2417 42.3174L66.4814 42.0513L66.4054 41.8612L65.9492 41.7092C66.0252 41.6585 66.0632 41.6205 66.0632 41.5952C66.0632 41.4938 65.9619 41.4051 65.7591 41.3291C65.5564 41.2277 65.417 41.1643 65.341 41.139V41.291C65.3156 41.3164 65.2776 41.3164 65.227 41.291C65.1763 41.2657 65.1636 41.253 65.1889 41.253L64.4667 40.8349C64.5427 40.8349 64.5934 40.8095 64.6187 40.7589C64.6694 40.7082 64.6567 40.6702 64.5807 40.6448L63.9725 40.6828L63.8965 43.6479C63.9978 43.7239 64.0612 43.8633 64.0865 44.066C64.1119 44.2434 64.1246 44.3955 64.1246 44.5222L63.8965 44.8263C64.0232 44.8263 64.1246 44.7883 64.2006 44.7123C64.2006 44.9657 64.2006 45.2191 64.2006 45.4725C64.2259 45.7259 64.2513 45.9794 64.2766 46.2328L64.4667 46.3848L64.6187 47.1451C64.416 47.1451 64.3146 47.1705 64.3146 47.2211ZM64.7328 32.9661C64.6567 33.0675 64.6061 33.1815 64.5807 33.3082C64.5807 33.4349 64.5807 33.5617 64.5807 33.6884H64.6187C64.6948 33.6884 64.7581 33.6377 64.8088 33.5363C64.8848 33.4349 64.9228 33.3462 64.9228 33.2702H65.341C65.265 33.1182 65.227 32.9534 65.227 32.776C65.227 32.3199 65.493 31.9524 66.0252 31.6737V31.5976C66.0252 31.4202 66.0759 31.2428 66.1773 31.0654C66.2787 30.8627 66.38 30.698 66.4814 30.5713H66.6334L66.7095 30.4192C66.6334 30.3685 66.5954 30.3432 66.5954 30.3432C66.5954 30.3178 66.6081 30.2545 66.6334 30.1531C66.9122 29.7476 67.115 29.4689 67.2417 29.3168C67.3684 29.1648 67.4444 28.886 67.4697 28.4805C67.6471 28.3031 67.7105 28.1764 67.6598 28.1004C67.6091 27.999 67.7738 27.847 68.154 27.6442C68.0526 27.6442 68.0019 27.5935 68.0019 27.4922C68.1286 27.3908 68.1793 27.2007 68.154 26.922C68.154 26.6179 68.3187 26.3518 68.6482 26.1237L68.4961 25.9716C68.6988 25.8196 68.8256 25.5662 68.8762 25.2114C68.9523 24.8566 69.0156 24.5778 69.0663 24.3751C69.1677 24.3751 69.2184 24.3877 69.2184 24.4131C69.2184 24.4384 69.2437 24.4004 69.2944 24.299L69.1043 23.9189C69.231 23.8682 69.3071 23.8175 69.3324 23.7669C69.3831 23.7162 69.4211 23.6401 69.4464 23.5388L69.2184 23.4628L69.2944 23.1586L69.5225 23.0826C69.4211 22.9559 69.3831 22.7025 69.4084 22.3223C69.4338 21.9422 69.4211 21.6634 69.3704 21.4861C69.269 21.0299 69.0916 20.5991 68.8382 20.1936C68.5848 19.7881 68.3567 19.3826 68.154 18.9772H68.0019V19.1292C68.0019 19.332 67.9512 19.4587 67.8499 19.5094C67.7992 19.484 67.7612 19.4967 67.7358 19.5474C67.7105 19.5981 67.6978 19.6361 67.6978 19.6614C67.7738 19.7374 67.8119 19.8135 67.8119 19.8895C67.8119 20.0162 67.7612 20.1556 67.6598 20.3076C67.5584 20.4343 67.4697 20.523 67.3937 20.5737C67.4444 20.7258 67.4697 20.8398 67.4697 20.9159C67.4697 21.1693 67.3937 21.41 67.2417 21.6381C67.0896 21.8408 66.9882 22.0689 66.9376 22.3223C66.9882 22.373 67.0136 22.3984 67.0136 22.3984C67.0389 22.373 67.0643 22.3984 67.0896 22.4744L66.8615 22.5504C66.9629 22.5504 67.0136 22.6265 67.0136 22.7785L66.7095 23.0826C66.7602 23.2093 66.7348 23.5008 66.6334 23.9569C66.5321 24.4131 66.418 24.8692 66.2913 25.3254C66.19 25.7816 66.1013 26.0983 66.0252 26.2757H65.8732C65.8478 26.1744 65.7972 26.0983 65.7211 26.0477V26.1997C65.7211 26.2251 65.7211 26.2504 65.7211 26.2757C65.7465 26.2757 65.7591 26.2884 65.7591 26.3138C65.7591 26.3138 65.7465 26.3391 65.7211 26.3898C65.6958 26.4151 65.6451 26.4785 65.5691 26.5799C65.6198 26.6812 65.6451 26.7826 65.6451 26.884C65.6451 26.96 65.6451 27.0614 65.6451 27.1881C65.6451 27.4415 65.6198 27.7076 65.5691 27.9863C65.5184 28.2398 65.493 28.5059 65.493 28.7846L65.1889 28.7086C65.2396 29.4182 65.2016 30.1278 65.0749 30.8374C64.9482 31.5216 64.7454 32.2058 64.4667 32.8901L64.7328 32.9661ZM75.6486 44.9023H75.2684L75.1164 44.5982L74.7362 44.7503L74.2801 44.4462L74.2041 43.99C73.9506 44.0153 73.7479 43.9013 73.5958 43.6479C73.4691 43.3945 73.4058 43.1157 73.4058 42.8116C73.4058 42.6088 73.4565 42.4061 73.5578 42.2034L73.2537 42.1273C73.2791 42.0006 73.2791 41.8866 73.2537 41.7852C73.2537 41.6585 73.2537 41.5445 73.2537 41.4431L73.5578 41.215H73.3297V41.177L73.4058 41.139V40.9869C73.4058 40.8349 73.4311 40.6955 73.4818 40.5688C73.5325 40.4167 73.5832 40.2774 73.6339 40.1506L73.4818 39.9226C73.6085 39.7198 73.6719 39.5044 73.6719 39.2763C73.6972 39.0229 73.7859 38.8075 73.938 38.6301L74.052 38.7061L74.128 38.402L73.938 38.25C74.1154 38.0219 74.2547 37.7051 74.3561 37.2996C74.4828 36.8942 74.5969 36.4887 74.6982 36.0832C74.8249 35.6777 74.9643 35.3736 75.1164 35.1709L75.1924 35.3229V34.9428H75.1164C74.9897 35.0442 74.8376 35.1455 74.6602 35.2469C74.4828 35.3483 74.3054 35.4497 74.128 35.551C74.1027 35.5003 74.128 35.4497 74.2041 35.399C74.3054 35.3483 74.3308 35.3229 74.2801 35.3229H73.938C73.7352 35.6777 73.4818 35.8551 73.1777 35.8551C73.051 35.8551 72.8989 35.8425 72.7215 35.8171C72.5695 35.7664 72.3921 35.7284 72.1893 35.7031C72.088 35.5257 72.0373 35.3229 72.0373 35.0949L72.2654 34.8668C72.164 34.7401 72.1387 34.588 72.1893 34.4106H72.4174V34.0305L72.6455 33.8784L72.7215 34.1065L73.0256 34.0305V33.9545C73.0256 33.7517 73.1524 33.6503 73.4058 33.6503L73.2537 34.0305L73.3297 34.1825L74.4321 33.9545C74.4068 33.8531 74.5335 33.7264 74.8123 33.5743C75.1164 33.4223 75.2938 33.3209 75.3445 33.2702L75.8006 33.4223C75.826 33.2702 75.902 33.1308 76.0287 33.0041C76.1808 32.8521 76.3075 32.738 76.4088 32.662C76.4595 32.4846 76.5102 32.3072 76.5609 32.1298C76.6369 31.9524 76.6876 31.775 76.7129 31.5976L77.1691 31.5216L77.3212 31.1415C77.4986 31.0148 77.6886 30.9767 77.8914 31.0274C78.0941 31.0781 78.2842 31.0908 78.4616 31.0654L78.6136 31.4456C78.6896 31.3949 78.8037 31.3695 78.9557 31.3695C79.0824 31.3695 79.2472 31.3949 79.4499 31.4456C79.5766 31.3695 79.6526 31.3189 79.678 31.2935C79.7033 31.2428 79.7287 31.2175 79.754 31.2175C79.8047 31.2175 79.8427 31.2302 79.8681 31.2555C79.9187 31.2555 79.9821 31.2682 80.0581 31.2935L79.9821 31.0654L80.8184 30.9134L80.8944 31.1415L81.0465 30.8374H81.8828L81.7307 30.6093L81.8067 30.5332C81.9588 30.5079 82.1108 30.4952 82.2629 30.4952C82.4403 30.4699 82.6177 30.4572 82.7951 30.4572V30.2291L83.2132 30.3052L83.0612 30.1531L83.2893 30.3052C83.416 30.3305 83.6567 30.3052 84.0115 30.2291C84.3917 30.1278 84.5817 30.0011 84.5817 29.849C84.6831 29.8743 84.7845 29.887 84.8858 29.887C85.0125 29.887 85.1393 29.887 85.266 29.887C85.6968 29.887 86.1276 29.8617 86.5584 29.811C87.0146 29.7603 87.4454 29.7223 87.8509 29.697L88.0029 30.0011V29.849L88.307 30.0771C88.3324 30.0011 88.3831 29.9504 88.4591 29.925C88.5351 29.8997 88.6111 29.8743 88.6872 29.849C88.8139 30.0264 88.9279 30.1404 89.0293 30.1911C89.156 30.2165 89.3081 30.2545 89.4855 30.3052C89.5108 30.3559 89.5235 30.4319 89.5235 30.5332C89.5235 30.7613 89.3714 30.8754 89.0673 30.8754C88.7379 30.8754 88.3704 30.812 87.9649 30.6853C87.5594 30.5586 87.2933 30.4826 87.1666 30.4572V30.5332L87.3947 30.6093C87.1666 30.6093 86.9892 30.5332 86.8625 30.3812H86.7865C86.5838 30.3812 86.4064 30.4319 86.2543 30.5332L85.7982 30.3812C85.6968 30.5332 85.5194 30.6093 85.266 30.6093V30.5713C85.266 30.4952 85.2153 30.4446 85.1139 30.4192C85.0379 30.3685 84.9619 30.3305 84.8858 30.3052L84.7338 30.6093L83.2893 30.8374C83.2893 30.812 83.2513 30.774 83.1752 30.7233C83.0992 30.6726 83.0612 30.6853 83.0612 30.7613L83.4413 31.4456H83.6694C83.9228 31.623 84.0875 31.8384 84.1636 32.0918C84.2649 32.3452 84.3156 32.6113 84.3156 32.8901C84.3156 33.1182 84.2776 33.3589 84.2016 33.6123C84.1509 33.8404 84.0749 34.0558 83.9735 34.2586C84.0242 34.2079 84.0749 34.2079 84.1256 34.2586C84.2016 34.3092 84.2523 34.3599 84.2776 34.4106C84.1256 34.5373 84.0622 34.6767 84.0875 34.8288C84.1382 34.9555 84.0495 35.1202 83.8215 35.3229C83.8975 35.399 83.9355 35.4877 83.9355 35.589C83.9355 35.6904 83.9228 35.7918 83.8975 35.8931C83.8721 35.9692 83.8468 36.0579 83.8215 36.1592H83.5173V36.5394C83.5173 36.6154 83.5173 36.7041 83.5173 36.8055C83.5173 36.8815 83.492 36.9702 83.4413 37.0716L83.1372 37.1476L83.2893 37.4517L82.567 38.9342L82.1869 39.0102V39.6185C82.0855 39.7452 81.9968 39.8719 81.9208 39.9986C81.8448 40.1 81.7814 40.2267 81.7307 40.3787C81.5787 40.4041 81.4519 40.4548 81.3506 40.5308C81.2746 40.6068 81.1732 40.6575 81.0465 40.6828V40.9109L81.2746 40.9869C81.0972 41.1643 80.9451 41.3417 80.8184 41.5191C80.6917 41.6712 80.4889 41.7979 80.2102 41.8993V41.9753H80.3622C80.2102 42.2034 80.1088 42.3428 80.0581 42.3934C80.0074 42.4441 79.8807 42.5582 79.678 42.7356C79.754 42.7609 79.7667 42.7989 79.716 42.8496C79.6907 42.9003 79.6526 42.8876 79.602 42.8116C79.5766 43.0397 79.4879 43.1537 79.3359 43.1537C79.1838 43.1537 79.0698 43.2424 78.9937 43.4198H79.0698L78.9937 43.5338C78.8164 43.6606 78.639 43.7873 78.4616 43.914C78.3095 44.0407 78.1068 44.0914 77.8533 44.066V44.3701H77.8153C77.6886 44.3701 77.5746 44.4335 77.4732 44.5602C77.3718 44.6616 77.2451 44.7249 77.0931 44.7503C76.865 44.801 76.6369 44.839 76.4088 44.8643C76.1808 44.8897 75.9527 44.9023 75.7246 44.9023L75.6486 44.6742V44.9023ZM76.3328 44.104C76.5102 44.104 76.7636 44.0153 77.0931 43.8379L77.1691 44.066L77.3972 43.99C77.4732 43.6099 77.6506 43.5085 77.9294 43.6859C77.9294 43.5085 78.0054 43.3438 78.1575 43.1917L78.2335 43.4198C78.2842 43.1157 78.4109 42.8876 78.6136 42.7356C78.8164 42.5835 79.0191 42.4568 79.2218 42.3554C79.4246 42.2541 79.5513 42.1273 79.602 41.9753C79.5006 41.7979 79.5766 41.5571 79.83 41.253C80.0835 40.9236 80.2609 40.7082 80.3622 40.6068C80.4636 40.7082 80.565 40.7589 80.6663 40.7589L80.7424 40.6828C80.641 40.6068 80.565 40.4548 80.5143 40.2267C80.717 40.0746 80.8691 39.8972 80.9704 39.6945C81.0718 39.4664 81.1732 39.2383 81.2746 39.0102L81.5026 39.1623C81.5026 39.0356 81.5533 38.9342 81.6547 38.8582C81.5787 38.7568 81.528 38.7061 81.5026 38.7061C81.5026 38.6808 81.5026 38.6048 81.5026 38.4781C81.6293 38.3767 81.7687 38.1486 81.9208 37.7938C82.0728 37.439 82.1995 37.0716 82.3009 36.6914C82.4276 36.2859 82.491 36.0072 82.491 35.8551L82.7191 35.7791C82.6177 35.7284 82.567 35.7031 82.567 35.7031C82.5924 35.7031 82.5924 35.6524 82.567 35.551H82.7951L82.8711 35.475C82.8204 35.4243 82.7951 35.1075 82.7951 34.5247C82.7951 34.2459 82.7951 33.9671 82.7951 33.6884C82.8204 33.3843 82.8458 33.1942 82.8711 33.1182H82.643C82.5417 32.7634 82.4023 32.5353 82.2249 32.4339C82.0475 32.3072 81.8321 32.2439 81.5787 32.2439C81.2746 32.2439 80.9324 32.3072 80.5523 32.4339C80.1975 32.5606 79.8554 32.624 79.5259 32.624C79.3992 32.624 79.2979 32.6113 79.2218 32.586V32.738C79.2725 32.7634 79.3105 32.7887 79.3359 32.8141C79.3866 32.8141 79.4246 32.8394 79.4499 32.8901C79.2218 32.9154 79.0064 32.9788 78.8037 33.0801C78.6263 33.1562 78.4362 33.2449 78.2335 33.3462V33.4223C78.3348 33.4476 78.4109 33.4983 78.4616 33.5743C78.2842 33.9038 78.0941 34.2586 77.8914 34.6387C77.714 35.0188 77.5746 35.399 77.4732 35.7791C77.3972 35.7791 77.3465 35.7664 77.3212 35.7411C77.2958 35.7157 77.2705 35.7031 77.2451 35.7031C77.2198 35.7031 77.1691 35.8298 77.0931 36.0832H77.1691L77.3212 35.9312V36.0832L77.1691 36.3113L77.017 36.2353V36.7674L76.789 36.8435C76.8903 36.8942 76.8903 37.0589 76.789 37.3377C76.6876 37.5911 76.5609 37.8572 76.4088 38.1359C76.2568 38.3894 76.1554 38.5541 76.1047 38.6301C76.1301 38.8075 76.0794 39.1243 75.9527 39.5804C75.8513 40.0366 75.7246 40.4801 75.5725 40.9109C75.4205 41.3164 75.2684 41.5952 75.1164 41.7472C75.1924 41.8486 75.2558 41.9753 75.3064 42.1273C75.3825 42.2541 75.4205 42.3808 75.4205 42.5075C75.4205 42.5582 75.4078 42.6088 75.3825 42.6595C75.3825 42.7102 75.3698 42.7609 75.3445 42.8116C75.2431 42.7609 75.1924 42.8116 75.1924 42.9636C75.2684 42.989 75.3318 43.0397 75.3825 43.1157C75.4332 43.1917 75.4205 43.2677 75.3445 43.3438C75.5725 43.5465 75.7499 43.7239 75.8766 43.876C76.0034 44.028 76.1554 44.104 76.3328 44.104Z" fill="black"/>
<mask id="path-2-inside-1_25_162" fill="white">
<path d="M0 0H97.8054V54.4616H0V0Z"/>
</mask>
<path d="M97.8054 53.6697H0V55.2535H97.8054V53.6697Z" fill="black" mask="url(#path-2-inside-1_25_162)"/>
<mask id="path-4-inside-2_25_162" fill="white">
<path d="M0 0H97.8054V54.4616H0V0Z"/>
</mask>
<path d="M97.8054 53.6697H0V55.2535H97.8054V53.6697Z" fill="black" mask="url(#path-4-inside-2_25_162)"/>
<mask id="path-6-inside-3_25_162" fill="white">
<path d="M0 0H97.8054V54.4616H0V0Z"/>
</mask>
<path d="M97.8054 53.6697H0V55.2535H97.8054V53.6697Z" fill="black" mask="url(#path-6-inside-3_25_162)"/>
<mask id="path-8-inside-4_25_162" fill="white">
<path d="M0 14.2913H118V48.6677H0V14.2913Z"/>
</mask>
<path d="M0.791946 48.6677V14.2913H-0.791946V48.6677H0.791946Z" fill="black" mask="url(#path-8-inside-4_25_162)"/>
<mask id="path-10-inside-5_25_162" fill="white">
<path d="M0 14.2913H118V48.6677H0V14.2913Z"/>
</mask>
<path d="M0.791946 48.6677V14.2913H-0.791946V48.6677H0.791946Z" fill="black" mask="url(#path-10-inside-5_25_162)"/>
<mask id="path-12-inside-6_25_162" fill="white">
<path d="M0 14.2913H118V48.6677H0V14.2913Z"/>
</mask>
<path d="M0.791946 48.6677V14.2913H-0.791946V48.6677H0.791946Z" fill="black" mask="url(#path-12-inside-6_25_162)"/>
</svg>
